<?xml version="1.0" encoding="utf-8"?>
<!-- Generator: Adobe Illustrator 16.2.0, SVG Export Plug-In . SVG Version: 6.00 Build 0)  -->
<!DOCTYPE svg PUBLIC "-//W3C//DTD SVG 1.1//EN" "http://www.w3.org/Graphics/SVG/1.1/DTD/svg11.dtd">
<svg version="1.1" id="Ebene_1" xmlns="http://www.w3.org/2000/svg" xmlns:xlink="http://www.w3.org/1999/xlink" x="0px" y="0px"
	 width="960px" height="560px" viewBox="0 0 960 560" enable-background="new 0 0 960 560" xml:space="preserve">
<rect x="339.5" y="140.5" fill="#95C7CB" width="280" height="280"/>
<g>
	<path fill="#FFFFFF" d="M432.115,244.012c0,4.905-0.88,9.125-2.639,12.663c-1.761,3.537-4.176,6.457-7.244,8.76
		c-3.07,2.302-6.691,4.006-10.865,5.109c-4.175,1.104-8.676,1.657-13.505,1.657c-4.866,0-9.397-0.553-13.589-1.657
		c-4.193-1.104-7.834-2.808-10.922-5.109c-3.088-2.303-5.512-5.223-7.271-8.76c-1.76-3.538-2.639-7.758-2.639-12.663
		c0-4.866,0.889-9.087,2.666-12.663c1.778-3.574,4.221-6.514,7.328-8.815c3.107-2.303,6.758-4.015,10.95-5.138
		s8.685-1.685,13.477-1.685c4.829,0,9.33,0.553,13.505,1.657c4.174,1.104,7.795,2.808,10.865,5.109
		c3.068,2.303,5.483,5.242,7.244,8.816C431.235,234.869,432.115,239.108,432.115,244.012z M425.209,244.012
		c0-7.224-2.294-12.747-6.879-16.565c-4.586-3.818-11.408-5.728-20.468-5.728c-9.097,0-15.957,1.909-20.579,5.728
		c-4.625,3.818-6.936,9.341-6.936,16.565c0,7.225,2.311,12.728,6.936,16.509c4.622,3.782,11.482,5.671,20.579,5.671
		c9.06,0,15.882-1.899,20.468-5.699C422.915,256.693,425.209,251.199,425.209,244.012z"/>
	<path fill="#FFFFFF" d="M519.473,270.684h-19.654v-7.805c-1.76,1.385-3.594,2.649-5.502,3.791c-1.91,1.142-3.959,2.125-6.148,2.948
		c-2.191,0.824-4.531,1.46-7.02,1.909c-2.49,0.449-5.194,0.674-8.114,0.674c-3.894,0-7.685-0.571-11.37-1.712
		c-3.688-1.142-6.955-2.892-9.799-5.25c-2.846-2.358-5.13-5.334-6.852-8.928s-2.582-7.842-2.582-12.747
		c0-4.717,0.851-8.816,2.555-12.297c1.703-3.481,4.033-6.373,6.99-8.676c2.957-2.302,6.42-4.023,10.389-5.166
		c3.967-1.141,8.217-1.712,12.746-1.712c2.283,0,4.529,0.178,6.738,0.534c2.209,0.356,4.361,0.852,6.458,1.488
		c2.097,0.637,4.118,1.375,6.064,2.218c1.946,0.842,3.763,1.732,5.446,2.667V199.82h-12.746v-6.289h19.766v70.808h12.635V270.684z
		 M474.662,266.192c2.771,0,5.381-0.327,7.834-0.982c2.451-0.655,4.734-1.507,6.85-2.555c2.115-1.047,4.043-2.208,5.785-3.481
		c1.74-1.272,3.303-2.527,4.688-3.762v-25.662c-1.423-1.047-3.014-2.049-4.772-3.004c-1.761-0.954-3.679-1.805-5.755-2.555
		c-2.078-0.749-4.287-1.348-6.627-1.797s-4.82-0.674-7.439-0.674c-3.856,0-7.376,0.487-10.557,1.46
		c-3.183,0.974-5.906,2.387-8.17,4.239c-2.266,1.854-4.025,4.137-5.279,6.851c-1.254,2.715-1.881,5.812-1.881,9.293
		c0,7.263,2.152,12.85,6.457,16.761C460.1,264.236,466.389,266.192,474.662,266.192z"/>
	<path fill="#FFFFFF" d="M600.197,270.684h-19.653v-7.805c-1.76,1.385-3.594,2.649-5.503,3.791
		c-1.909,1.142-3.959,2.125-6.148,2.948c-2.19,0.824-4.53,1.46-7.02,1.909c-2.49,0.449-5.194,0.674-8.114,0.674
		c-3.894,0-7.684-0.571-11.37-1.712c-3.688-1.142-6.954-2.892-9.799-5.25c-2.846-2.358-5.129-5.334-6.851-8.928
		c-1.723-3.594-2.583-7.842-2.583-12.747c0-4.717,0.851-8.816,2.555-12.297c1.703-3.481,4.033-6.373,6.991-8.676
		c2.957-2.302,6.42-4.023,10.389-5.166c3.967-1.141,8.216-1.712,12.746-1.712c2.283,0,4.529,0.178,6.738,0.534
		c2.208,0.356,4.36,0.852,6.457,1.488c2.097,0.637,4.118,1.375,6.064,2.218c1.946,0.842,3.763,1.732,5.447,2.667V199.82h-12.746
		v-6.289h19.766v70.808h12.634V270.684z M555.388,266.192c2.77,0,5.381-0.327,7.833-0.982c2.451-0.655,4.735-1.507,6.851-2.555
		c2.114-1.047,4.043-2.208,5.784-3.481c1.74-1.272,3.303-2.527,4.688-3.762v-25.662c-1.423-1.047-3.014-2.049-4.773-3.004
		c-1.76-0.954-3.678-1.805-5.755-2.555c-2.078-0.749-4.287-1.348-6.626-1.797c-2.34-0.449-4.82-0.674-7.44-0.674
		c-3.856,0-7.375,0.487-10.557,1.46c-3.183,0.974-5.905,2.387-8.17,4.239c-2.266,1.854-4.024,4.137-5.278,6.851
		c-1.255,2.715-1.881,5.812-1.881,9.293c0,7.263,2.151,12.85,6.457,16.761C540.825,264.236,547.114,266.192,555.388,266.192z"/>
	<path d="M420.379,319.892v-2.64c0-2.282-0.721-4.268-2.162-5.952s-3.275-3.068-5.502-4.155c-2.229-1.086-4.68-1.89-7.355-2.414
		c-2.678-0.524-5.251-0.787-7.722-0.787c-4.192,0-7.955,0.506-11.286,1.517c-3.333,1.011-6.148,2.462-8.451,4.353
		s-4.062,4.192-5.279,6.906c-1.217,2.715-1.824,5.775-1.824,9.181c0,3.445,0.598,6.523,1.797,9.237
		c1.197,2.715,2.929,5.026,5.193,6.935c2.266,1.91,5.035,3.369,8.311,4.381c3.275,1.01,6.992,1.516,11.146,1.516
		c3.519,0,6.598-0.327,9.238-0.982c2.639-0.654,4.875-1.497,6.709-2.527c1.834-1.029,3.313-2.18,4.437-3.453
		c1.123-1.272,1.966-2.546,2.526-3.818h7.244c-2.098,5.541-5.728,9.742-10.894,12.606c-5.166,2.863-11.699,4.296-19.597,4.296
		c-4.793,0-9.238-0.609-13.336-1.825c-4.1-1.216-7.637-3.013-10.613-5.391c-2.977-2.377-5.307-5.315-6.991-8.816
		c-1.685-3.5-2.526-7.515-2.526-12.045c0-4.566,0.879-8.609,2.639-12.129c1.76-3.518,4.164-6.476,7.215-8.872
		c3.051-2.396,6.627-4.212,10.727-5.446c4.098-1.236,8.469-1.854,13.111-1.854c2.731,0,5.277,0.188,7.637,0.562
		c2.357,0.374,4.52,0.89,6.484,1.544c1.967,0.656,3.707,1.396,5.223,2.219s2.816,1.684,3.902,2.582v-5.727h6.121v21.001H420.379z"/>
	<path d="M472.923,375.932c-5.354,0-10.286-0.524-14.796-1.572c-4.512-1.049-8.471-2.415-11.877-4.099l3.201-6.178
		c0.674,0.412,1.609,0.927,2.808,1.545c1.198,0.617,2.731,1.235,4.604,1.853c1.871,0.618,4.127,1.142,6.766,1.572
		c2.641,0.43,5.736,0.646,9.294,0.646c3.818,0,7.132-0.28,9.938-0.842c2.809-0.562,5.213-1.339,7.217-2.33
		c2.002-0.992,3.63-2.153,4.885-3.481c1.254-1.329,2.246-2.762,2.977-4.296c0.729-1.535,1.225-3.145,1.487-4.829
		c0.261-1.685,0.394-3.369,0.394-5.054v-3.986c-1.761,1.385-3.594,2.648-5.504,3.79c-1.908,1.143-3.959,2.125-6.148,2.948
		s-4.529,1.459-7.02,1.908c-2.489,0.449-5.193,0.674-8.113,0.674c-3.895,0-7.684-0.57-11.371-1.712s-6.954-2.892-9.799-5.251
		c-2.845-2.357-5.129-5.334-6.85-8.928c-1.723-3.594-2.584-7.842-2.584-12.747c0-4.717,0.852-8.815,2.555-12.297
		s4.034-6.373,6.992-8.676c2.956-2.303,6.42-4.023,10.388-5.166c3.968-1.142,8.217-1.713,12.747-1.713
		c2.282,0,4.528,0.178,6.738,0.533c2.208,0.356,4.359,0.852,6.457,1.488c2.096,0.637,4.117,1.375,6.064,2.219
		c1.945,0.842,3.762,1.731,5.447,2.666v-5.391h19.653v6.289h-12.635v43.126c0,4.043-0.655,7.729-1.966,11.062
		c-1.311,3.331-3.34,6.204-6.092,8.619c-2.752,2.414-6.271,4.286-10.557,5.615C483.938,375.267,478.838,375.932,472.923,375.932z
		 M474.664,348.192c2.77,0,5.381-0.327,7.832-0.982c2.452-0.654,4.736-1.507,6.852-2.555c2.114-1.048,4.043-2.209,5.783-3.482
		c1.74-1.271,3.304-2.526,4.689-3.762v-25.662c-1.424-1.047-3.014-2.049-4.773-3.004c-1.76-0.954-3.678-1.806-5.756-2.556
		c-2.078-0.748-4.287-1.348-6.625-1.797c-2.341-0.449-4.821-0.674-7.441-0.674c-3.855,0-7.375,0.487-10.557,1.461
		s-5.905,2.387-8.17,4.239c-2.266,1.854-4.024,4.137-5.277,6.851c-1.256,2.715-1.882,5.812-1.882,9.293
		c0,7.264,2.152,12.851,6.458,16.762C460.101,346.236,466.39,348.192,474.664,348.192z"/>
	<path d="M517.648,299.227h19.654v10.108c1.759-1.685,3.724-3.247,5.896-4.688c2.171-1.441,4.511-2.705,7.019-3.791
		s5.147-1.938,7.918-2.555c2.77-0.617,5.615-0.927,8.535-0.927c3.481,0,6.522,0.44,9.125,1.319c2.602,0.881,4.763,2.125,6.485,3.734
		c1.722,1.609,3.013,3.566,3.874,5.868c0.861,2.303,1.292,4.877,1.292,7.721v30.322h12.69v6.346h-32.344v-6.346h12.635v-28.244
		c0-2.845-0.365-5.194-1.096-7.047c-0.729-1.854-1.769-3.322-3.116-4.409c-1.348-1.085-2.985-1.843-4.913-2.273
		c-1.929-0.43-4.091-0.646-6.486-0.646c-2.807,0-5.559,0.375-8.254,1.123c-2.695,0.75-5.231,1.686-7.608,2.809
		c-2.378,1.123-4.568,2.368-6.57,3.734c-2.003,1.366-3.697,2.667-5.081,3.902v31.052h12.689v6.346h-32.344v-6.346h12.635v-40.823
		h-12.635V299.227z"/>
</g>
</svg>
