<?xml version="1.0" encoding="utf-8"?>
<!-- Generator: Adobe Illustrator 16.2.0, SVG Export Plug-In . SVG Version: 6.00 Build 0)  -->
<!DOCTYPE svg PUBLIC "-//W3C//DTD SVG 1.1//EN" "http://www.w3.org/Graphics/SVG/1.1/DTD/svg11.dtd">
<svg version="1.1" id="Ebene_1" xmlns="http://www.w3.org/2000/svg" xmlns:xlink="http://www.w3.org/1999/xlink" x="0px" y="0px"
	 width="960px" height="560px" viewBox="0 0 960 560" enable-background="new 0 0 960 560" xml:space="preserve">
<rect x="94" y="177" fill="#95C7CB" width="772" height="206"/>
<g>
	<path fill="#FFFFFF" d="M173.715,236.791c0,2.529-0.458,4.713-1.374,6.552s-2.174,3.356-3.773,4.553s-3.486,2.082-5.66,2.656
		s-4.519,0.861-7.034,0.861c-2.529,0-4.888-0.287-7.075-0.861s-4.088-1.459-5.701-2.656s-2.878-2.714-3.794-4.553
		s-1.374-4.023-1.374-6.552c0-1.682,0.212-3.209,0.636-4.583s1.019-2.604,1.784-3.691s1.692-2.027,2.779-2.82
		s2.297-1.453,3.63-1.979s2.765-0.916,4.296-1.169s3.138-0.379,4.819-0.379c2.516,0,4.86,0.287,7.034,0.861s4.061,1.459,5.66,2.656
		s2.857,2.714,3.773,4.553S173.715,234.261,173.715,236.791z M170.906,236.791c0-3.992-1.258-7.034-3.773-9.126
		s-6.269-3.138-11.259-3.138c-5.004,0-8.777,1.056-11.32,3.168s-3.814,5.144-3.814,9.095c0,3.992,1.271,7.034,3.814,9.126
		s6.316,3.138,11.32,3.138c4.99,0,8.743-1.046,11.259-3.138S170.906,240.783,170.906,236.791z"/>
	<path fill="#FFFFFF" d="M177.038,231.335h7.178v2.851c0.643-0.533,1.312-1.012,2.01-1.436s1.446-0.783,2.246-1.077
		s1.654-0.516,2.563-0.667s1.897-0.226,2.963-0.226c1.436,0,2.823,0.202,4.163,0.605s2.529,1.025,3.568,1.866
		s1.873,1.914,2.502,3.22s0.943,2.854,0.943,4.645s-0.335,3.333-1.005,4.625s-1.565,2.358-2.687,3.199s-2.413,1.463-3.876,1.866
		s-2.987,0.605-4.573,0.605c-0.916,0-1.784-0.062-2.604-0.185s-1.596-0.291-2.328-0.502s-1.422-0.458-2.071-0.738
		s-1.254-0.578-1.815-0.892v7.526h4.614v2.297h-11.792v-2.297h4.614v-22.989h-4.614V231.335z M184.215,246.819
		c1.012,0.684,2.246,1.254,3.702,1.712s3.148,0.687,5.076,0.687c1.408,0,2.704-0.174,3.886-0.523s2.201-0.868,3.056-1.559
		s1.521-1.538,2-2.543s0.718-2.164,0.718-3.476c0-2.666-0.779-4.689-2.338-6.07s-3.862-2.071-6.911-2.071
		c-1.012,0-1.965,0.113-2.861,0.338s-1.729,0.523-2.502,0.892s-1.477,0.779-2.112,1.23s-1.207,0.902-1.712,1.354V246.819z"/>
	<path fill="#FFFFFF" d="M221.006,251.372c-1.791,0-3.415-0.236-4.871-0.708s-2.697-1.148-3.722-2.03s-1.818-1.952-2.379-3.209
		s-0.841-2.666-0.841-4.225c0-1.518,0.294-2.909,0.882-4.173s1.408-2.352,2.461-3.261s2.304-1.613,3.753-2.112
		s3.035-0.749,4.758-0.749c1.791,0,3.397,0.253,4.819,0.759s2.625,1.234,3.609,2.184s1.736,2.102,2.256,3.456
		s0.779,2.878,0.779,4.573v0.451h-20.672c0.096,1.039,0.366,1.976,0.81,2.81s1.056,1.545,1.835,2.133s1.712,1.039,2.799,1.354
		s2.328,0.472,3.722,0.472c1.34,0,2.505-0.109,3.497-0.328s1.832-0.513,2.522-0.882s1.251-0.786,1.682-1.251
		s0.762-0.943,0.995-1.436h2.563c-0.807,2.078-2.177,3.626-4.112,4.645S223.836,251.372,221.006,251.372z M229.866,240.113
		c-0.068-0.93-0.28-1.812-0.636-2.646s-0.889-1.569-1.6-2.205s-1.606-1.142-2.687-1.518s-2.379-0.564-3.896-0.564
		c-1.422,0-2.68,0.188-3.773,0.564s-2.023,0.882-2.789,1.518s-1.367,1.371-1.805,2.205s-0.718,1.716-0.841,2.646H229.866z"/>
	<path fill="#FFFFFF" d="M235.403,231.335h7.178v3.691c0.643-0.615,1.36-1.186,2.153-1.712s1.647-0.988,2.563-1.384
		s1.88-0.708,2.892-0.933s2.051-0.338,3.117-0.338c1.271,0,2.382,0.161,3.333,0.482s1.74,0.776,2.369,1.364s1.101,1.302,1.415,2.143
		s0.472,1.781,0.472,2.82v11.074h4.635v2.317h-11.812v-2.317h4.614v-10.315c0-1.039-0.133-1.897-0.4-2.574s-0.646-1.213-1.138-1.61
		s-1.09-0.673-1.794-0.831s-1.494-0.236-2.369-0.236c-1.025,0-2.03,0.137-3.015,0.41s-1.911,0.615-2.779,1.025
		s-1.668,0.865-2.399,1.364s-1.35,0.974-1.856,1.425v11.341h4.635v2.317h-11.812v-2.317h4.614v-14.909h-4.614V231.335z"/>
	<path fill="#FFFFFF" d="M283.658,222.681h20.364c2.311,0,4.457,0.226,6.439,0.677s3.702,1.22,5.158,2.307s2.598,2.533,3.425,4.337
		s1.241,4.054,1.241,6.747c0,1.805-0.188,3.408-0.564,4.809s-0.906,2.622-1.589,3.661s-1.514,1.921-2.492,2.646
		s-2.064,1.306-3.261,1.743s-2.495,0.755-3.896,0.954s-2.875,0.297-4.419,0.297h-20.405v-2.317h5.886v-23.563h-5.886V222.681z
		 M317.639,236.75c0-1.531-0.15-2.885-0.451-4.061s-0.731-2.198-1.292-3.066s-1.244-1.596-2.051-2.184s-1.716-1.063-2.728-1.425
		s-2.112-0.619-3.302-0.769s-2.454-0.226-3.794-0.226h-11.915V248.5h11.915c2.01,0,3.849-0.181,5.517-0.543s3.1-0.991,4.296-1.887
		s2.129-2.099,2.799-3.609S317.639,239.046,317.639,236.75z"/>
	<path fill="#FFFFFF" d="M343.643,248.583c-0.629,0.314-1.326,0.639-2.092,0.974s-1.593,0.639-2.481,0.913s-1.832,0.499-2.83,0.677
		s-2.044,0.267-3.138,0.267c-1.23,0-2.345-0.123-3.343-0.369s-1.846-0.612-2.543-1.097s-1.237-1.087-1.62-1.805
		s-0.574-1.548-0.574-2.492c0-1.463,0.472-2.659,1.415-3.589s2.246-1.671,3.907-2.225s3.626-0.96,5.896-1.22
		s4.737-0.451,7.403-0.574v-0.964c0-0.725-0.198-1.347-0.595-1.866s-0.93-0.943-1.6-1.271s-1.446-0.571-2.328-0.728
		s-1.815-0.236-2.799-0.236c-1.148,0-2.15,0.072-3.004,0.215s-1.576,0.355-2.164,0.636s-1.056,0.622-1.405,1.025
		s-0.605,0.865-0.769,1.384l-2.604-0.615c0.438-1.531,1.48-2.721,3.127-3.568s3.893-1.271,6.737-1.271
		c1.436,0,2.762,0.123,3.979,0.369s2.266,0.636,3.148,1.169s1.572,1.227,2.071,2.082s0.749,1.89,0.749,3.107v11.033h4.881v2.317
		h-7.424V248.583z M343.643,240.195c-2.994,0.109-5.517,0.304-7.567,0.584s-3.708,0.643-4.973,1.087s-2.174,0.971-2.728,1.579
		s-0.831,1.302-0.831,2.082c0,1.203,0.523,2.119,1.569,2.748s2.581,0.943,4.604,0.943c0.861,0,1.781-0.096,2.758-0.287
		s1.924-0.434,2.84-0.728s1.757-0.625,2.522-0.995s1.367-0.731,1.805-1.087V240.195z"/>
	<path fill="#FFFFFF" d="M351.498,231.335h5.291v-6.768h2.563v6.768h13.74v2.297h-13.74v11.382c0,0.807,0.147,1.477,0.441,2.01
		s0.708,0.957,1.241,1.271s1.172,0.533,1.917,0.656s1.562,0.185,2.451,0.185s1.702-0.055,2.44-0.164s1.408-0.25,2.01-0.42
		s1.152-0.369,1.651-0.595s0.954-0.461,1.364-0.708l1.271,2.051c-0.506,0.287-1.077,0.557-1.712,0.81s-1.323,0.472-2.061,0.656
		s-1.524,0.332-2.358,0.441s-1.688,0.164-2.563,0.164c-1.312,0-2.502-0.109-3.568-0.328s-1.976-0.574-2.728-1.066
		s-1.333-1.138-1.743-1.938s-0.615-1.781-0.615-2.943v-11.464h-5.291V231.335z"/>
	<path fill="#FFFFFF" d="M395.938,248.583c-0.629,0.314-1.326,0.639-2.092,0.974s-1.593,0.639-2.481,0.913s-1.832,0.499-2.83,0.677
		s-2.044,0.267-3.138,0.267c-1.23,0-2.345-0.123-3.343-0.369s-1.846-0.612-2.543-1.097s-1.237-1.087-1.62-1.805
		s-0.574-1.548-0.574-2.492c0-1.463,0.472-2.659,1.415-3.589s2.246-1.671,3.907-2.225s3.626-0.96,5.896-1.22
		s4.737-0.451,7.403-0.574v-0.964c0-0.725-0.198-1.347-0.595-1.866s-0.93-0.943-1.6-1.271s-1.446-0.571-2.328-0.728
		s-1.815-0.236-2.799-0.236c-1.148,0-2.15,0.072-3.004,0.215s-1.576,0.355-2.164,0.636s-1.056,0.622-1.405,1.025
		s-0.605,0.865-0.769,1.384l-2.604-0.615c0.438-1.531,1.48-2.721,3.127-3.568s3.893-1.271,6.737-1.271
		c1.436,0,2.762,0.123,3.979,0.369s2.266,0.636,3.148,1.169s1.572,1.227,2.071,2.082s0.749,1.89,0.749,3.107v11.033h4.881v2.317
		h-7.424V248.583z M395.938,240.195c-2.994,0.109-5.517,0.304-7.567,0.584s-3.708,0.643-4.973,1.087s-2.174,0.971-2.728,1.579
		s-0.831,1.302-0.831,2.082c0,1.203,0.523,2.119,1.569,2.748s2.581,0.943,4.604,0.943c0.861,0,1.781-0.096,2.758-0.287
		s1.924-0.434,2.84-0.728s1.757-0.625,2.522-0.995s1.367-0.731,1.805-1.087V240.195z"/>
	<path fill="#FFFFFF" d="M421.265,222.681h20.364c2.311,0,4.457,0.226,6.439,0.677s3.702,1.22,5.158,2.307s2.598,2.533,3.425,4.337
		s1.241,4.054,1.241,6.747c0,1.805-0.188,3.408-0.564,4.809s-0.906,2.622-1.589,3.661s-1.514,1.921-2.492,2.646
		s-2.064,1.306-3.261,1.743s-2.495,0.755-3.896,0.954s-2.875,0.297-4.419,0.297h-20.405v-2.317h5.886v-23.563h-5.886V222.681z
		 M455.247,236.75c0-1.531-0.15-2.885-0.451-4.061s-0.731-2.198-1.292-3.066s-1.244-1.596-2.051-2.184s-1.716-1.063-2.728-1.425
		s-2.112-0.619-3.302-0.769s-2.454-0.226-3.794-0.226h-11.915V248.5h11.915c2.01,0,3.849-0.181,5.517-0.543s3.1-0.991,4.296-1.887
		s2.129-2.099,2.799-3.609S455.247,239.046,455.247,236.75z"/>
	<path fill="#FFFFFF" d="M481.251,248.583c-0.629,0.314-1.327,0.639-2.092,0.974s-1.593,0.639-2.481,0.913s-1.832,0.499-2.83,0.677
		s-2.044,0.267-3.138,0.267c-1.23,0-2.345-0.123-3.343-0.369s-1.846-0.612-2.543-1.097s-1.237-1.087-1.62-1.805
		s-0.574-1.548-0.574-2.492c0-1.463,0.472-2.659,1.415-3.589s2.246-1.671,3.907-2.225s3.626-0.96,5.896-1.22
		s4.737-0.451,7.404-0.574v-0.964c0-0.725-0.198-1.347-0.595-1.866c-0.396-0.52-0.93-0.943-1.6-1.271s-1.446-0.571-2.328-0.728
		s-1.815-0.236-2.799-0.236c-1.148,0-2.15,0.072-3.004,0.215s-1.576,0.355-2.164,0.636s-1.056,0.622-1.405,1.025
		s-0.605,0.865-0.769,1.384l-2.604-0.615c0.438-1.531,1.48-2.721,3.127-3.568s3.893-1.271,6.737-1.271
		c1.436,0,2.762,0.123,3.979,0.369s2.266,0.636,3.148,1.169s1.572,1.227,2.071,2.082s0.749,1.89,0.749,3.107v11.033h4.881v2.317
		h-7.424V248.583z M481.251,240.195c-2.995,0.109-5.517,0.304-7.568,0.584s-3.708,0.643-4.973,1.087s-2.174,0.971-2.728,1.579
		s-0.831,1.302-0.831,2.082c0,1.203,0.523,2.119,1.569,2.748s2.581,0.943,4.604,0.943c0.861,0,1.781-0.096,2.758-0.287
		s1.924-0.434,2.84-0.728s1.757-0.625,2.522-0.995s1.367-0.731,1.805-1.087V240.195z"/>
	<path fill="#FFFFFF" d="M516.955,233.632h-3.876l-7.588,14.909l-0.472,0.882c-0.506,0.998-0.981,1.938-1.426,2.82
		s-0.898,1.688-1.363,2.42s-0.957,1.388-1.477,1.969s-1.098,1.073-1.732,1.477c-0.637,0.403-1.351,0.711-2.144,0.923
		s-1.702,0.318-2.728,0.318c-0.82,0-1.679-0.116-2.574-0.349s-1.691-0.581-2.389-1.046l1.128-2.174
		c0.191,0.123,0.406,0.26,0.646,0.41s0.517,0.291,0.831,0.42s0.667,0.239,1.056,0.328c0.391,0.089,0.824,0.133,1.303,0.133
		c0.971,0,1.814-0.137,2.533-0.41c0.717-0.273,1.363-0.667,1.938-1.179s1.098-1.145,1.568-1.897
		c0.473-0.752,0.947-1.606,1.426-2.563l-8.695-17.391h-3.814v-2.297h10.131v2.297h-3.363l7.137,14.704l7.26-14.704h-3.445v-2.297
		h10.131V233.632z"/>
	<path fill="#FFFFFF" d="M534.428,222.681h14.314v2.297h-5.865v10.972l16.755-10.972h-3.281v-2.297h13.904v2.297h-6.686
		l-14.95,9.803l0.164-0.041l16.816,13.802h5.824v2.317h-14.314v-2.317h4.819l-15.237-12.51l-3.814,2.481v10.028h5.865v2.317h-14.314
		v-2.317h5.886v-23.563h-5.886V222.681z"/>
	<path fill="#FFFFFF" d="M597.694,241.118c0,1.791-0.321,3.333-0.964,4.625s-1.524,2.358-2.646,3.199s-2.444,1.463-3.968,1.866
		c-1.525,0.403-3.169,0.605-4.933,0.605c-1.777,0-3.432-0.202-4.963-0.605s-2.86-1.025-3.989-1.866
		c-1.127-0.841-2.013-1.907-2.655-3.199s-0.964-2.833-0.964-4.625c0-1.777,0.324-3.319,0.975-4.625
		c0.648-1.306,1.541-2.379,2.676-3.22s2.468-1.466,3.999-1.876s3.172-0.615,4.922-0.615c1.764,0,3.407,0.202,4.933,0.605
		c1.523,0.403,2.847,1.025,3.968,1.866s2.003,1.914,2.646,3.22S597.694,239.327,597.694,241.118z M595.172,241.118
		c0-2.639-0.838-4.655-2.512-6.05c-1.676-1.395-4.167-2.092-7.476-2.092c-3.322,0-5.828,0.697-7.517,2.092s-2.532,3.411-2.532,6.05
		s0.844,4.648,2.532,6.029s4.194,2.071,7.517,2.071c3.309,0,5.8-0.694,7.476-2.082C594.334,245.749,595.172,243.743,595.172,241.118
		z M579.299,226.167c0-0.506,0.167-0.94,0.502-1.302s0.756-0.543,1.262-0.543s0.939,0.181,1.303,0.543
		c0.361,0.362,0.543,0.796,0.543,1.302s-0.182,0.933-0.543,1.282c-0.363,0.349-0.797,0.523-1.303,0.523s-0.927-0.174-1.262-0.523
		S579.299,226.673,579.299,226.167z M587.44,226.167c0-0.246,0.044-0.482,0.134-0.708c0.088-0.226,0.215-0.424,0.379-0.595
		s0.355-0.304,0.574-0.4s0.458-0.144,0.718-0.144c0.506,0,0.933,0.181,1.282,0.543c0.348,0.362,0.522,0.796,0.522,1.302
		s-0.175,0.933-0.522,1.282c-0.35,0.349-0.776,0.523-1.282,0.523c-0.52,0-0.95-0.174-1.292-0.523S587.44,226.673,587.44,226.167z"/>
	<path fill="#FFFFFF" d="M599.294,222.681h7.178v21.8c0,0.82,0.068,1.487,0.205,2s0.352,0.909,0.646,1.189
		c0.293,0.28,0.676,0.468,1.148,0.564c0.471,0.096,1.035,0.144,1.691,0.144h2.01v2.481h-1.969c-1.094,0-2.037-0.099-2.83-0.297
		s-1.445-0.543-1.959-1.036c-0.512-0.492-0.892-1.152-1.138-1.979s-0.369-1.876-0.369-3.148v-19.421h-4.614V222.681z"/>
	<path fill="#FFFFFF" d="M613.731,231.335h7.178v3.691c0.643-0.615,1.36-1.186,2.153-1.712s1.647-0.988,2.563-1.384
		s1.88-0.708,2.892-0.933s2.051-0.338,3.117-0.338c1.271,0,2.382,0.161,3.332,0.482s1.74,0.776,2.369,1.364s1.101,1.302,1.415,2.143
		s0.472,1.781,0.472,2.82v11.074h4.635v2.317h-11.812v-2.317h4.614v-10.315c0-1.039-0.134-1.897-0.399-2.574
		c-0.268-0.677-0.646-1.213-1.139-1.61s-1.091-0.673-1.795-0.831s-1.493-0.236-2.368-0.236c-1.025,0-2.03,0.137-3.015,0.41
		s-1.911,0.615-2.779,1.025s-1.668,0.865-2.398,1.364c-0.732,0.499-1.351,0.974-1.856,1.425v11.341h4.635v2.317h-11.812v-2.317
		h4.614v-14.909h-4.614V231.335z"/>
</g>
<g>
	<path d="M136.256,292.303V291.4c1.239-0.694,2.404-1.349,3.497-1.961c1.092-0.612,2.095-1.193,3.008-1.745s1.733-1.078,2.46-1.579
		c0.727-0.501,1.341-0.99,1.842-1.467c0.501-0.476,0.886-0.945,1.155-1.407s0.403-0.925,0.403-1.391c0-0.53-0.106-1.006-0.317-1.429
		c-0.211-0.422-0.539-0.78-0.983-1.074c-0.444-0.293-1.01-0.517-1.697-0.671c-0.688-0.154-1.508-0.231-2.46-0.231
		c-0.874,0-1.66,0.077-2.358,0.231c-0.698,0.154-1.293,0.392-1.783,0.714c-0.491,0.322-0.869,0.73-1.133,1.225
		c-0.265,0.494-0.397,1.081-0.397,1.762h-1.364c0-0.616,0.095-1.171,0.285-1.665c0.189-0.494,0.449-0.931,0.779-1.311
		c0.329-0.379,0.716-0.704,1.16-0.972c0.444-0.269,0.92-0.489,1.429-0.661c0.508-0.172,1.038-0.297,1.59-0.376
		c0.551-0.079,1.099-0.118,1.644-0.118c1.081,0,2.052,0.104,2.911,0.312c0.859,0.208,1.59,0.51,2.191,0.908s1.063,0.886,1.386,1.466
		s0.483,1.246,0.483,1.998c0,0.688-0.244,1.369-0.73,2.046c-0.487,0.677-1.191,1.381-2.111,2.111c-0.92,0.73-2.043,1.5-3.368,2.31
		c-1.325,0.81-2.825,1.69-4.501,2.643h9.969v-3.384h1.203v4.641L136.256,292.303z"/>
	<path d="M160.566,283.043c0.959,0.079,1.781,0.211,2.465,0.397c0.684,0.187,1.26,0.41,1.729,0.671
		c0.469,0.262,0.845,0.547,1.128,0.854c0.283,0.308,0.5,0.623,0.65,0.945s0.249,0.639,0.295,0.95c0.046,0.312,0.07,0.601,0.07,0.865
		c0,0.773-0.181,1.463-0.542,2.067c-0.362,0.605-0.87,1.116-1.525,1.531s-1.436,0.73-2.342,0.945
		c-0.906,0.215-1.9,0.322-2.981,0.322c-0.896,0-1.758-0.092-2.589-0.274c-0.831-0.183-1.565-0.478-2.202-0.886
		c-0.638-0.408-1.146-0.937-1.525-1.585c-0.38-0.647-0.569-1.438-0.569-2.368h1.364c0,0.681,0.132,1.27,0.397,1.767
		c0.265,0.498,0.643,0.908,1.133,1.23c0.49,0.322,1.085,0.561,1.783,0.714c0.698,0.154,1.484,0.231,2.358,0.231
		c1.002,0,1.873-0.099,2.61-0.296c0.737-0.196,1.348-0.463,1.832-0.8s0.843-0.727,1.08-1.171s0.354-0.913,0.354-1.407
		c0-0.537-0.102-1.026-0.306-1.467s-0.562-0.817-1.074-1.133c-0.512-0.315-1.205-0.561-2.079-0.736
		c-0.874-0.175-1.977-0.267-3.309-0.273v-1.16l5.672-4.211h-9.55v2.75h-1.214v-3.975h13.052v0.924L160.566,283.043z"/>
	<path d="M169.546,291.164c0-0.179,0.032-0.346,0.097-0.5c0.064-0.153,0.152-0.288,0.263-0.402c0.111-0.114,0.243-0.206,0.397-0.274
		c0.154-0.067,0.32-0.102,0.5-0.102c0.172,0,0.334,0.034,0.489,0.102c0.154,0.068,0.288,0.16,0.403,0.274
		c0.114,0.114,0.206,0.249,0.274,0.402c0.068,0.154,0.102,0.321,0.102,0.5c0,0.172-0.034,0.335-0.102,0.488
		c-0.068,0.154-0.16,0.287-0.274,0.397c-0.115,0.111-0.249,0.199-0.403,0.264c-0.154,0.064-0.317,0.097-0.489,0.097
		c-0.179,0-0.346-0.032-0.5-0.097c-0.154-0.064-0.287-0.152-0.397-0.264c-0.111-0.11-0.199-0.243-0.263-0.397
		C169.579,291.499,169.546,291.336,169.546,291.164z"/>
	<path d="M197.788,292.303h-3.76v-1.934c-0.337,0.322-0.713,0.621-1.128,0.896c-0.416,0.276-0.861,0.518-1.337,0.726
		c-0.477,0.208-0.979,0.37-1.509,0.488c-0.53,0.118-1.074,0.178-1.633,0.178c-0.673,0-1.259-0.085-1.756-0.253
		c-0.498-0.168-0.912-0.406-1.241-0.714c-0.33-0.308-0.577-0.683-0.741-1.123c-0.165-0.44-0.247-0.933-0.247-1.477v-5.812h-2.417
		v-1.203h3.76v6.617c0,0.544,0.07,0.993,0.209,1.348s0.338,0.636,0.596,0.844s0.571,0.353,0.94,0.435
		c0.369,0.083,0.786,0.124,1.251,0.124c0.53,0,1.053-0.071,1.568-0.215s1.002-0.324,1.461-0.543c0.458-0.218,0.877-0.458,1.257-0.72
		c0.379-0.261,0.702-0.51,0.967-0.746v-5.94h-2.417v-1.203h3.76v9.013h2.417V292.303z"/>
	<path d="M198.733,282.076h3.76v1.934c0.336-0.322,0.712-0.621,1.128-0.897c0.415-0.275,0.863-0.517,1.343-0.725
		c0.479-0.208,0.984-0.371,1.515-0.489c0.53-0.118,1.074-0.177,1.633-0.177c0.666,0,1.248,0.084,1.746,0.252
		c0.498,0.169,0.911,0.407,1.241,0.715c0.329,0.308,0.576,0.682,0.741,1.122c0.165,0.44,0.247,0.934,0.247,1.478v5.801h2.428v1.214
		h-6.188v-1.214h2.417v-5.403c0-0.544-0.07-0.994-0.209-1.349s-0.338-0.635-0.596-0.843s-0.571-0.353-0.94-0.436
		c-0.369-0.082-0.783-0.123-1.241-0.123c-0.537,0-1.063,0.071-1.579,0.215s-1.001,0.322-1.456,0.537
		c-0.455,0.215-0.874,0.453-1.257,0.714c-0.383,0.262-0.708,0.511-0.972,0.747v5.94h2.428v1.214h-6.188v-1.214h2.417v-7.81h-2.417
		V282.076z"/>
	<path d="M230.648,292.303h-3.76v-1.493c-0.337,0.265-0.688,0.507-1.053,0.725c-0.365,0.219-0.757,0.407-1.176,0.564
		s-0.867,0.279-1.343,0.365c-0.477,0.086-0.994,0.129-1.552,0.129c-0.745,0-1.47-0.109-2.175-0.328
		c-0.706-0.218-1.331-0.553-1.875-1.004c-0.544-0.451-0.981-1.021-1.311-1.708c-0.33-0.688-0.494-1.5-0.494-2.438
		c0-0.902,0.163-1.687,0.489-2.353c0.326-0.666,0.771-1.22,1.337-1.66c0.565-0.44,1.228-0.77,1.987-0.988
		c0.759-0.218,1.572-0.327,2.438-0.327c0.437,0,0.866,0.034,1.289,0.102c0.422,0.068,0.834,0.163,1.235,0.285
		c0.401,0.122,0.788,0.263,1.16,0.424c0.372,0.161,0.72,0.332,1.042,0.511v-4.361h-2.438v-1.203h3.781v13.546h2.417V292.303z
		 M222.076,291.443c0.53,0,1.029-0.062,1.499-0.188c0.469-0.125,0.906-0.288,1.311-0.488c0.404-0.2,0.773-0.423,1.106-0.666
		s0.632-0.483,0.897-0.72v-4.909c-0.272-0.2-0.577-0.393-0.913-0.575c-0.337-0.183-0.704-0.345-1.101-0.488s-0.82-0.258-1.268-0.344
		c-0.448-0.086-0.922-0.129-1.423-0.129c-0.738,0-1.411,0.093-2.02,0.279c-0.609,0.187-1.13,0.456-1.563,0.811
		c-0.434,0.354-0.77,0.792-1.01,1.311c-0.24,0.52-0.36,1.112-0.36,1.778c0,1.39,0.412,2.458,1.235,3.206
		C219.29,291.069,220.493,291.443,222.076,291.443z"/>
	<path d="M240.305,292.303V291.4c1.239-0.694,2.404-1.349,3.497-1.961c1.092-0.612,2.095-1.193,3.008-1.745s1.733-1.078,2.46-1.579
		c0.727-0.501,1.341-0.99,1.842-1.467c0.501-0.476,0.886-0.945,1.155-1.407s0.403-0.925,0.403-1.391c0-0.53-0.106-1.006-0.317-1.429
		c-0.211-0.422-0.539-0.78-0.983-1.074c-0.444-0.293-1.01-0.517-1.697-0.671c-0.688-0.154-1.508-0.231-2.46-0.231
		c-0.874,0-1.66,0.077-2.358,0.231c-0.698,0.154-1.293,0.392-1.783,0.714c-0.491,0.322-0.869,0.73-1.133,1.225
		c-0.265,0.494-0.397,1.081-0.397,1.762h-1.364c0-0.616,0.095-1.171,0.285-1.665c0.189-0.494,0.449-0.931,0.779-1.311
		c0.329-0.379,0.716-0.704,1.16-0.972c0.444-0.269,0.92-0.489,1.429-0.661c0.508-0.172,1.038-0.297,1.59-0.376
		c0.551-0.079,1.099-0.118,1.644-0.118c1.081,0,2.052,0.104,2.911,0.312c0.859,0.208,1.59,0.51,2.191,0.908s1.063,0.886,1.386,1.466
		s0.483,1.246,0.483,1.998c0,0.688-0.244,1.369-0.73,2.046c-0.487,0.677-1.191,1.381-2.111,2.111c-0.92,0.73-2.043,1.5-3.368,2.31
		c-1.325,0.81-2.825,1.69-4.501,2.643h9.969v-3.384h1.203v4.641L240.305,292.303z"/>
	<path d="M263.412,291.089h3.448v-2.567h-10.495v-1.192l9.55-9.786h2.267v9.743h3.781v1.235h-3.781v2.567h3.147v1.214h-7.917
		V291.089z M266.86,278.338l-8.733,8.948h8.733V278.338z"/>
	<path d="M273.95,291.164c0-0.179,0.032-0.346,0.097-0.5c0.064-0.153,0.152-0.288,0.263-0.402c0.111-0.114,0.243-0.206,0.397-0.274
		c0.154-0.067,0.32-0.102,0.5-0.102c0.172,0,0.334,0.034,0.489,0.102c0.154,0.068,0.288,0.16,0.403,0.274
		c0.114,0.114,0.206,0.249,0.274,0.402c0.068,0.154,0.102,0.321,0.102,0.5c0,0.172-0.034,0.335-0.102,0.488
		c-0.068,0.154-0.16,0.287-0.274,0.397c-0.115,0.111-0.249,0.199-0.403,0.264c-0.154,0.064-0.317,0.097-0.489,0.097
		c-0.179,0-0.346-0.032-0.5-0.097c-0.154-0.064-0.287-0.152-0.397-0.264c-0.111-0.11-0.199-0.243-0.263-0.397
		C273.982,291.499,273.95,291.336,273.95,291.164z"/>
	<path d="M301.353,281.958V278.8h-9.979v5.296h8.271v1.257h-8.271v5.736h3.072v1.214h-7.498v-1.214h3.083v-12.343h-3.083v-1.203
		h15.619v4.415H301.353z"/>
	<path d="M310.129,292.571c-0.938,0-1.789-0.124-2.551-0.371s-1.413-0.602-1.95-1.063s-0.953-1.021-1.246-1.681
		c-0.294-0.659-0.44-1.396-0.44-2.213c0-0.795,0.154-1.523,0.462-2.187c0.308-0.662,0.737-1.231,1.289-1.708
		c0.551-0.476,1.207-0.845,1.966-1.106c0.759-0.261,1.59-0.392,2.492-0.392c0.938,0,1.779,0.133,2.524,0.397
		c0.745,0.265,1.375,0.646,1.891,1.144c0.516,0.498,0.909,1.102,1.182,1.811c0.272,0.709,0.408,1.508,0.408,2.396v0.236h-10.828
		c0.05,0.544,0.191,1.035,0.424,1.472c0.232,0.437,0.553,0.81,0.961,1.117s0.897,0.544,1.466,0.709s1.219,0.247,1.95,0.247
		c0.702,0,1.312-0.058,1.832-0.172c0.519-0.114,0.959-0.269,1.321-0.462c0.361-0.193,0.655-0.412,0.881-0.655
		s0.399-0.494,0.521-0.752h1.343c-0.423,1.089-1.141,1.899-2.154,2.433C312.859,292.304,311.612,292.571,310.129,292.571z
		 M314.77,286.674c-0.036-0.487-0.147-0.949-0.333-1.386c-0.187-0.437-0.466-0.822-0.838-1.155
		c-0.373-0.333-0.842-0.598-1.407-0.795c-0.566-0.196-1.246-0.295-2.041-0.295c-0.745,0-1.404,0.099-1.977,0.295
		c-0.573,0.197-1.06,0.462-1.461,0.795c-0.401,0.333-0.716,0.719-0.945,1.155c-0.229,0.437-0.376,0.898-0.44,1.386H314.77z"/>
	<path d="M317.67,277.543h3.76v6.026c0.336-0.265,0.689-0.507,1.058-0.726c0.369-0.218,0.763-0.406,1.182-0.563
		s0.866-0.279,1.343-0.365c0.476-0.086,0.99-0.129,1.542-0.129c0.752,0,1.479,0.109,2.181,0.327
		c0.702,0.219,1.325,0.554,1.869,1.005c0.544,0.451,0.981,1.021,1.311,1.708c0.329,0.688,0.494,1.5,0.494,2.438
		c0,0.902-0.163,1.688-0.489,2.357c-0.326,0.67-0.772,1.225-1.337,1.665c-0.566,0.44-1.229,0.769-1.987,0.983
		c-0.759,0.215-1.568,0.322-2.428,0.322c-0.437,0-0.869-0.034-1.294-0.103c-0.426-0.068-0.842-0.161-1.246-0.279
		c-0.405-0.118-0.792-0.258-1.16-0.419c-0.369-0.161-0.714-0.334-1.037-0.521v1.031h-3.76v-1.214h2.417v-12.343h-2.417V277.543z
		 M321.43,289.929c0.279,0.2,0.585,0.392,0.918,0.574s0.696,0.344,1.09,0.483c0.394,0.14,0.816,0.251,1.268,0.333
		c0.451,0.083,0.931,0.124,1.439,0.124c0.737,0,1.409-0.093,2.014-0.279c0.605-0.187,1.124-0.457,1.558-0.812
		c0.433-0.354,0.77-0.791,1.01-1.311c0.24-0.519,0.36-1.111,0.36-1.777c0-0.694-0.104-1.311-0.312-1.848
		c-0.208-0.537-0.514-0.99-0.918-1.359c-0.405-0.368-0.908-0.647-1.509-0.838c-0.602-0.189-1.3-0.284-2.095-0.284
		c-0.537,0-1.041,0.062-1.509,0.188c-0.469,0.126-0.904,0.289-1.305,0.489c-0.401,0.2-0.77,0.423-1.106,0.666
		c-0.337,0.243-0.638,0.483-0.902,0.72V289.929z"/>
	<path d="M333.977,282.076h3.76v2.148c0.293-0.344,0.608-0.664,0.945-0.962c0.336-0.297,0.7-0.555,1.09-0.773
		c0.39-0.218,0.809-0.39,1.257-0.516c0.447-0.125,0.929-0.188,1.445-0.188c0.258,0,0.498,0.02,0.72,0.059
		c0.222,0.04,0.419,0.085,0.591,0.135s0.315,0.101,0.43,0.15c0.114,0.05,0.193,0.082,0.236,0.097l-0.483,1.235
		c-0.179-0.093-0.41-0.189-0.693-0.29c-0.283-0.101-0.639-0.15-1.069-0.15c-0.544,0-1.044,0.084-1.499,0.252
		c-0.455,0.169-0.867,0.378-1.235,0.629c-0.369,0.251-0.697,0.528-0.983,0.832c-0.287,0.305-0.537,0.59-0.752,0.854v5.5h2.643v1.214
		h-6.402v-1.214h2.417v-7.81h-2.417V282.076z"/>
	<path d="M361.058,292.303h-3.76v-1.934c-0.337,0.322-0.713,0.621-1.128,0.896c-0.416,0.276-0.861,0.518-1.337,0.726
		c-0.477,0.208-0.979,0.37-1.509,0.488c-0.53,0.118-1.074,0.178-1.633,0.178c-0.673,0-1.259-0.085-1.756-0.253
		c-0.498-0.168-0.912-0.406-1.241-0.714c-0.33-0.308-0.577-0.683-0.741-1.123c-0.165-0.44-0.247-0.933-0.247-1.477v-5.812h-2.417
		v-1.203h3.76v6.617c0,0.544,0.07,0.993,0.209,1.348s0.338,0.636,0.596,0.844s0.571,0.353,0.94,0.435
		c0.369,0.083,0.786,0.124,1.251,0.124c0.53,0,1.053-0.071,1.568-0.215s1.002-0.324,1.461-0.543c0.458-0.218,0.877-0.458,1.257-0.72
		c0.379-0.261,0.702-0.51,0.967-0.746v-5.94h-2.417v-1.203h3.76v9.013h2.417V292.303z"/>
	<path d="M372.305,291.11c-0.33,0.165-0.695,0.335-1.096,0.51c-0.401,0.176-0.834,0.335-1.3,0.479
		c-0.466,0.144-0.96,0.261-1.482,0.354c-0.523,0.093-1.071,0.14-1.644,0.14c-0.645,0-1.229-0.064-1.751-0.193
		c-0.523-0.129-0.967-0.32-1.332-0.575c-0.365-0.254-0.648-0.569-0.849-0.945c-0.201-0.376-0.301-0.811-0.301-1.305
		c0-0.767,0.247-1.393,0.741-1.88s1.176-0.876,2.046-1.166s1.899-0.503,3.088-0.639c1.188-0.136,2.481-0.236,3.878-0.301v-0.505
		c0-0.38-0.104-0.705-0.312-0.978c-0.208-0.272-0.487-0.494-0.838-0.666c-0.351-0.172-0.757-0.299-1.219-0.382
		c-0.462-0.082-0.951-0.123-1.466-0.123c-0.602,0-1.126,0.037-1.574,0.112c-0.448,0.075-0.826,0.187-1.133,0.333
		c-0.308,0.147-0.553,0.326-0.736,0.537c-0.183,0.212-0.317,0.453-0.403,0.726l-1.364-0.322c0.229-0.802,0.775-1.425,1.638-1.869
		c0.863-0.444,2.039-0.666,3.529-0.666c0.752,0,1.446,0.064,2.084,0.193c0.637,0.129,1.187,0.333,1.649,0.612
		s0.823,0.643,1.085,1.09c0.261,0.448,0.392,0.99,0.392,1.628v5.779h2.557v1.214h-3.889V291.11z M372.305,286.717
		c-1.568,0.058-2.89,0.159-3.964,0.306c-1.074,0.147-1.943,0.337-2.605,0.569c-0.663,0.233-1.139,0.509-1.429,0.827
		c-0.29,0.319-0.435,0.683-0.435,1.091c0,0.63,0.274,1.11,0.822,1.439s1.352,0.494,2.412,0.494c0.451,0,0.933-0.05,1.445-0.15
		c0.512-0.101,1.008-0.228,1.488-0.382c0.479-0.153,0.92-0.327,1.321-0.521c0.401-0.193,0.716-0.383,0.945-0.569V286.717z"/>
	<path d="M376.924,282.076h3.76v2.148c0.293-0.344,0.608-0.664,0.945-0.962c0.336-0.297,0.7-0.555,1.09-0.773
		c0.39-0.218,0.809-0.39,1.257-0.516c0.447-0.125,0.929-0.188,1.445-0.188c0.258,0,0.498,0.02,0.72,0.059
		c0.222,0.04,0.419,0.085,0.591,0.135s0.315,0.101,0.43,0.15c0.114,0.05,0.193,0.082,0.236,0.097l-0.483,1.235
		c-0.179-0.093-0.41-0.189-0.693-0.29c-0.283-0.101-0.639-0.15-1.069-0.15c-0.544,0-1.044,0.084-1.499,0.252
		c-0.455,0.169-0.867,0.378-1.235,0.629c-0.369,0.251-0.697,0.528-0.983,0.832c-0.287,0.305-0.537,0.59-0.752,0.854v5.5h2.643v1.214
		h-6.402v-1.214h2.417v-7.81h-2.417V282.076z"/>
	<path d="M397.034,292.303V291.4c1.239-0.694,2.404-1.349,3.497-1.961c1.092-0.612,2.095-1.193,3.008-1.745s1.733-1.078,2.46-1.579
		c0.727-0.501,1.341-0.99,1.842-1.467c0.501-0.476,0.886-0.945,1.155-1.407s0.403-0.925,0.403-1.391c0-0.53-0.106-1.006-0.317-1.429
		c-0.211-0.422-0.539-0.78-0.983-1.074c-0.444-0.293-1.01-0.517-1.697-0.671c-0.688-0.154-1.508-0.231-2.46-0.231
		c-0.874,0-1.66,0.077-2.358,0.231c-0.698,0.154-1.293,0.392-1.783,0.714c-0.491,0.322-0.869,0.73-1.133,1.225
		c-0.265,0.494-0.397,1.081-0.397,1.762h-1.364c0-0.616,0.095-1.171,0.285-1.665c0.189-0.494,0.449-0.931,0.779-1.311
		c0.329-0.379,0.716-0.704,1.16-0.972c0.444-0.269,0.92-0.489,1.429-0.661c0.508-0.172,1.038-0.297,1.59-0.376
		c0.551-0.079,1.099-0.118,1.644-0.118c1.081,0,2.052,0.104,2.911,0.312c0.859,0.208,1.59,0.51,2.191,0.908s1.063,0.886,1.386,1.466
		s0.483,1.246,0.483,1.998c0,0.688-0.244,1.369-0.73,2.046c-0.487,0.677-1.191,1.381-2.111,2.111c-0.92,0.73-2.043,1.5-3.368,2.31
		c-1.325,0.81-2.825,1.69-4.501,2.643h9.969v-3.384h1.203v4.641L397.034,292.303z"/>
	<path d="M429.421,284.934c0,0.823-0.102,1.586-0.306,2.288s-0.485,1.336-0.843,1.901c-0.358,0.565-0.784,1.065-1.278,1.498
		c-0.494,0.434-1.03,0.795-1.606,1.085c-0.577,0.29-1.186,0.511-1.826,0.661c-0.641,0.15-1.291,0.226-1.95,0.226
		c-0.659,0-1.309-0.075-1.95-0.226c-0.641-0.15-1.251-0.371-1.832-0.661s-1.117-0.651-1.611-1.085
		c-0.494-0.433-0.922-0.933-1.284-1.498c-0.362-0.565-0.645-1.199-0.849-1.901s-0.306-1.465-0.306-2.288s0.102-1.585,0.306-2.283
		s0.487-1.33,0.849-1.896c0.361-0.565,0.79-1.065,1.284-1.499c0.494-0.433,1.031-0.796,1.611-1.09
		c0.58-0.293,1.19-0.516,1.832-0.666c0.641-0.15,1.291-0.226,1.95-0.226c0.659,0,1.309,0.075,1.95,0.226
		c0.641,0.15,1.25,0.373,1.826,0.666c0.576,0.294,1.112,0.657,1.606,1.09c0.494,0.434,0.92,0.933,1.278,1.499
		c0.358,0.565,0.639,1.197,0.843,1.896S429.421,284.11,429.421,284.934z M428.079,284.934c0-0.73-0.086-1.4-0.258-2.009
		s-0.41-1.153-0.714-1.633c-0.305-0.479-0.665-0.898-1.08-1.257c-0.416-0.358-0.863-0.653-1.343-0.886
		c-0.48-0.232-0.981-0.408-1.504-0.526c-0.523-0.118-1.046-0.177-1.568-0.177c-0.788,0-1.568,0.131-2.342,0.392
		c-0.773,0.262-1.468,0.661-2.084,1.198c-0.616,0.537-1.114,1.212-1.493,2.024c-0.38,0.813-0.569,1.771-0.569,2.874
		s0.189,2.061,0.569,2.873c0.379,0.813,0.877,1.488,1.493,2.025c0.616,0.537,1.311,0.937,2.084,1.197
		c0.773,0.262,1.554,0.393,2.342,0.393c0.522,0,1.045-0.06,1.568-0.178c0.522-0.118,1.024-0.295,1.504-0.531
		c0.479-0.236,0.927-0.533,1.343-0.892c0.415-0.358,0.775-0.779,1.08-1.263c0.304-0.483,0.542-1.025,0.714-1.627
		S428.079,285.664,428.079,284.934z"/>
	<path d="M432.3,291.089h3.309v-12.364l-3.749,1.106v-1.192l3.749-1.096h1.311v13.546h3.309v1.214H432.3V291.089z"/>
	<path d="M449.799,283.043c0.959,0.079,1.781,0.211,2.465,0.397c0.684,0.187,1.26,0.41,1.729,0.671
		c0.469,0.262,0.845,0.547,1.128,0.854c0.283,0.308,0.5,0.623,0.65,0.945s0.249,0.639,0.295,0.95c0.046,0.312,0.07,0.601,0.07,0.865
		c0,0.773-0.181,1.463-0.542,2.067c-0.362,0.605-0.87,1.116-1.525,1.531s-1.436,0.73-2.342,0.945
		c-0.906,0.215-1.9,0.322-2.981,0.322c-0.896,0-1.758-0.092-2.589-0.274c-0.831-0.183-1.565-0.478-2.202-0.886
		c-0.638-0.408-1.146-0.937-1.525-1.585c-0.38-0.647-0.569-1.438-0.569-2.368h1.364c0,0.681,0.132,1.27,0.397,1.767
		c0.265,0.498,0.643,0.908,1.133,1.23c0.49,0.322,1.085,0.561,1.783,0.714c0.698,0.154,1.484,0.231,2.358,0.231
		c1.002,0,1.873-0.099,2.61-0.296c0.737-0.196,1.348-0.463,1.832-0.8s0.843-0.727,1.08-1.171s0.354-0.913,0.354-1.407
		c0-0.537-0.102-1.026-0.306-1.467s-0.562-0.817-1.074-1.133c-0.512-0.315-1.205-0.561-2.079-0.736
		c-0.874-0.175-1.977-0.267-3.309-0.273v-1.16l5.672-4.211h-9.55v2.75h-1.214v-3.975h13.052v0.924L449.799,283.043z"/>
</g>
</svg>
